# xmcd
#
# Track frame offsets: 
#        182
#        17840
#        38417
#        55440
#        68272
#        92515
#        115970
#        132870
#        152215
#        173745
#        190095
#
# Disc length: 2909 seconds
#
# Revision: 12
# Processed by: cddbd v1.5.2PL0 Copyright (c) Steve Scherf et al.
# Submitted via: ExactAudioCopyFreeDBPlugin 1.0
#
DISCID=830b5b0b
DTITLE=Various Artist - Rhythm Country and Blues
DYEAR=1994
DGENRE=Country/Blues
TTITLE0=Vince Gill and Gladys Knight - Ain't Nothing Like The Real Thing
TTITLE1=Al Green and Lyle Lovett - Funny How Time Slips Away
TTITLE2=Aaron Neville and Trisha Yearwood - I Fall To Pieces
TTITLE3=Little Richard and Tanya Tucker - Somethin' Else
TTITLE4=Patti Labelle and Travis Tritt - When Something Is Wrong With My
TTITLE4=Baby
TTITLE5=Sam Moore and Conway Twitty - Rainy Night In Georgia
TTITLE6=Clint Black and Pointer Sisters - Chain Of Fools
TTITLE7=Natalie Cole and Reba McEntire - Since I Fell For You
TTITLE8=Chet Atkins and Allen Toussaint - Southern Nights
TTITLE9=The Staple Singers and Marty Stuart - The Weight
TTITLE10=George Jones and B.B. King - Patches
EXTD=YEAR: 1994
EXTT0=
EXTT1=
EXTT2=
EXTT3=
EXTT4=
EXTT5=
EXTT6=
EXTT7=
EXTT8=
EXTT9=
EXTT10=
PLAYORDER=
